<svg xmlns="http://www.w3.org/2000/svg" viewBox="0 0 73.01 70.54"><defs><style>.cls-1,.cls-2{fill:#fff;stroke:#333;stroke-miterlimit:10}.cls-2{fill:none}</style></defs><title>Dogovor</title><g id="Слой_2" data-name="Слой 2"><g id="Слой_12" data-name="Слой 12"><path class="cls-1" d="M.5.5h54.67v69.54H.5z"/><path class="cls-1" d="M71.31 18.64l-34.1 34.1c-2 1.21-9.63 3.85-9.63 3.85A87.68 87.68 0 0 1 31.44 47l34.1-34.1a4.1 4.1 0 0 1 5.78 0 4.1 4.1 0 0 1-.01 5.74z"/><path class="cls-2" d="M6.86 16.51h43.15M6.83 25.78h33.88M6.83 35.05h24.68m-.07 11.92l5.77 5.77m-27.55-5.3v14.49m-1.97-3.48h8.22M13 46.51H9.66v9.16H13a4.58 4.58 0 1 0 0-9.16z"/></g></g></svg>