<svg xmlns="http://www.w3.org/2000/svg" viewBox="0 0 91.08 60.99"><defs><style>.cls-1,.cls-2,.cls-3{fill:none;stroke:#333}.cls-1{stroke-miterlimit:10}.cls-2,.cls-3{stroke-linejoin:round}.cls-3{stroke-linecap:round}</style></defs><title>ystanovka</title><g id="Слой_2" data-name="Слой 2"><g id="Слой_12" data-name="Слой 12"><path class="cls-1" d="M55.49 17.75H64c.65 0 6.11-2.57 10.77-4.92a2.91 2.91 0 0 0 1.28-2V7.26a2.08 2.08 0 0 0-1.12-1.63C70.22 3.27 64.65.5 64 .5h-8.5a2.13 2.13 0 0 0-2.13 2.13v13a2.13 2.13 0 0 0 2.12 2.12z"/><path class="cls-2" d="M.78 57.23c4 3.47 17.46 4 18.27 2.46s-2.51-4-2.2-5.69A106 106 0 0 1 23 31.93a3.13 3.13 0 0 1 2.84-1.83h1.25c.21 0 7.58.11 10.57 0a11 11 0 0 0 5.38-1.43 34.37 34.37 0 0 0 5.7-3.83 6.55 6.55 0 0 0 1.85-4.46V2.63A2.13 2.13 0 0 0 48.49.5H11.41c-1.17 0-4.25 0-4.13 2.13a11.16 11.16 0 0 1 3.08 5.94C7.85 17.92 2.77 43.08 2 52.85.15 54.23.38 57.11.78 57.23z"/><path class="cls-3" d="M90.58 8.83h-14.5"/><path class="cls-1" d="M27.77 30.12a8.11 8.11 0 0 0-1.72 5.72c.08 2.23-.41 2.38-2.32 2.2l-3.19-.3M41.03 7.77H17.35m23.68 5H17.35m23.68 5H17.35"/><path class="cls-2" d="M1.95 52.85L16.85 54"/></g></g></svg>