<svg xmlns="http://www.w3.org/2000/svg" width="177.333" height="29.333" viewBox="0 0 4692 776" shape-rendering="geometricPrecision" text-rendering="geometricPrecision" image-rendering="optimizeQuality" fill-rule="evenodd" clip-rule="evenodd"><defs><style>.fil0{fill:#0078bf;fill-rule:nonzero}</style></defs><path class="fil0" d="M2414 154c-121 5-216 99-223 221-7 131 91 242 223 247 60 3 112-15 158-52 2-20-39-66-63-71-26 23-60 32-89 32-84-2-125-71-126-142 0-72 42-142 126-144 29 0 59 9 85 32 23-1 63-52 62-70-44-37-95-55-153-53zM1052 619c89-1 200-18 207-127 3-46-17-94-58-118 27-24 44-57 43-93-3-99-111-120-191-124-65-2-154 3-177 7v448c33 3 116 8 176 7zm53-197c29 0 54 21 54 51 0 27-20 42-43 50-39 13-98 11-139 5V422h128zm37-128c0 22-18 44-41 44H977v-90c30-3 91-5 127 3 23 5 38 18 38 43zm547-129v446c-12 10-90 10-102 0V329c-56 93-110 189-165 282-11 10-90 10-101 0V165c11-10 90-10 101 0v282c56-93 110-189 165-282 12-10 90-10 102 0zm1035 0v282c56-93 110-189 165-282 11-10 90-10 102 0v446c-12 10-91 10-102 0V329c-56 93-110 189-165 282-11 10-90 10-102 0V165c12-10 91-10 102 0zm1157 0v446c-13 10-92 10-103 0V329c-29 49-57 97-85 147-16 26-64 109-80 135-11 10-90 10-102 0V165c12-10 91-10 102 0v282c56-93 110-189 165-282 11-10 90-10 103 0zm450 0v446c-11 10-90 10-103 0V422h-164v189c-11 10-90 10-101 0V165c11-10 90-10 101 0v173h164V165c13-10 92-10 103 0zm185 446V245c58-3 127-2 170 2 8-11 8-72 0-85-74-13-217-8-273 2v447c12 10 91 10 103 0zm-1087 0V165c-108-9-207-10-315 0-2 78 5 234-19 302-10 31-29 56-58 90 10 29 42 58 72 67 34-26 59-62 76-102 33-81 28-187 31-274 37-2 73-2 111 0v363c12 10 91 10 102 0zm-1289 0V164c-122-9-246-9-368 0v447c11 10 90 10 101 0V248c55-3 110-3 164 0v363c12 10 91 10 103 0zM571 176c-196 77-244 141-243 185v73c-1 12 4 17 5 17-2-11 2-25 20-36 33-23 106-39 251-47h1v245H233c-9 0-18-2-27-5 264-25 206-69 156-113-38 28-102 52-202 66-3-8-5-17-5-27V236c0-40 32-72 70-73h301c17 0 31 5 45 13zM567 8H192C139 8 91 30 56 64 22 100 0 147 0 200v376c0 53 22 100 56 135 35 35 83 57 136 57h567V200c0-53-21-100-57-136-34-34-82-56-135-56zM200 690c-68 0-123-55-123-123V209c0-68 56-124 123-124h359c68 0 123 56 123 124v481H200z" id="Слой_x0020_1"/></svg>