<svg xmlns="http://www.w3.org/2000/svg" viewBox="0 0 18 167"><defs><style>.cls-1,.cls-2,.cls-4,.cls-5{fill:none}.cls-2,.cls-4,.cls-5{stroke:#4d4d4d}.cls-2,.cls-4{stroke-linecap:round;stroke-linejoin:round}.cls-3{fill:#4d4d4d}.cls-4{stroke-width:.75px}.cls-5{stroke-miterlimit:10}</style></defs><title>price-s_1</title><g id="Слой_2" data-name="Слой 2"><path class="cls-1" d="M0 0h18v167H0z" id="Слой_25" data-name="Слой 25"/><g id="Слой_8" data-name="Слой 8"><path class="cls-2" d="M8.65 131.16l-6.16-3.1c-.28-.14-.28-.37 0-.51l5-2.55 1.15-.59a1.27 1.27 0 0 1 1 0l6.16 3.1c.28.14.28.37 0 .51l-6.17 3.13a1.27 1.27 0 0 1-.98.01zm-6.36 2.19l6.37 3.19a1.32 1.32 0 0 0 1.05 0l6.39-3.26m-3.19-72.82c-2.74 3.27-7.73 1.46-7.73 1.46a5.44 5.44 0 0 1-.34-7.82C8.61 49.82 14.91 52 14.91 52s.74 5.19-2 8.46zm-.74-6.52c-3.71 2.42-7.23 7-9.67 11.56m0 82h5v5h-5zm8 0h5v5h-5zm-8 8h5v5h-5zm8 0h5v5h-5zm-8-119h13"/><path class="cls-3" d="M5.81 40.59l.69-.73-3.62-3.36 3.62-3.36-.69-.73-4.39 4.09 4.39 4.09zm6.38 0l-.69-.73 3.62-3.36-3.62-3.36.69-.73 4.39 4.09-4.39 4.09z"/><path class="cls-4" d="M9.9 100l.2.52a1.54 1.54 0 0 0 1.88.9l.53-.16a1.54 1.54 0 0 1 1.78 2.23l-.28.48a1.54 1.54 0 0 0 .46 2l.46.31a1.54 1.54 0 0 1-.64 2.78l-.55.08a1.54 1.54 0 0 0-1.3 1.63v.56a1.54 1.54 0 0 1-2.57 1.24l-.41-.38a1.54 1.54 0 0 0-2.08 0l-.41.38a1.54 1.54 0 0 1-2.57-1.24v-.56a1.54 1.54 0 0 0-1.3-1.63l-.55-.08a1.54 1.54 0 0 1-.55-2.77l.46-.31a1.54 1.54 0 0 0 .46-2l-.28-.48a1.54 1.54 0 0 1 1.78-2.23l.53.16a1.54 1.54 0 0 0 1.88-.9L7 100a1.54 1.54 0 0 1 2.9 0z"/><circle class="cls-4" cx="8.5" cy="106.5" r="3"/></g><g id="Слой_12" data-name="Слой 12"><path class="cls-5" d="M8.72 89.78S2.5 87 2.5 82.16v-5.3a15.17 15.17 0 0 0 6.22-2.44c2.1 1.37 3.55 2.4 5.78 2.65l-.08 5.09c0 4.98-5.7 7.62-5.7 7.62zM8.5 78v7m3.5-3.5H5"/><circle class="cls-5" cx="9" cy="12" r="6.5"/><path class="cls-5" d="M8.5 8.5v4m4 0h-4"/></g></g></svg>