<svg xmlns="http://www.w3.org/2000/svg" viewBox="0 0 25 25"><defs><style>.cls-1{fill:#1a1a1a}.cls-2{fill:#333}</style></defs><title>rub4</title><g id="Слой_2" data-name="Слой 2"><g id="Слой_12" data-name="Слой 12"><path class="cls-1" d="M12.5 25A12.5 12.5 0 1 1 25 12.5 12.51 12.51 0 0 1 12.5 25zm0-24A11.5 11.5 0 1 0 24 12.5 11.51 11.51 0 0 0 12.5 1z"/><path class="cls-2" d="M9.83 20.43a.5.5 0 0 1-.5-.5V7.36a.5.5 0 0 1 1 0v12.57a.5.5 0 0 1-.5.5z"/><path class="cls-2" d="M15.46 18.14H7.54a.5.5 0 1 1 0-1h7.92a.5.5 0 0 1 0 1zm-1.63-2.92h-4a.5.5 0 0 1-.5-.5v-8a.5.5 0 0 1 .5-.5h4a4.5 4.5 0 0 1 0 9zm-3.5-1h3.5a3.5 3.5 0 0 0 0-7h-3.5z"/></g></g></svg>