<svg xmlns="http://www.w3.org/2000/svg" viewBox="0 0 24.73 23.69"><defs><style>.cls-1{fill:none;stroke:#333;stroke-linecap:round;stroke-linejoin:round}</style></defs><title>sale</title><path class="cls-1" d="M13.49 1.2l2.7 5.47a1.25 1.25 0 0 0 .94.68l6 .88a1.25 1.25 0 0 1 .69 2.13l-4.37 4.26a1.25 1.25 0 0 0-.36 1.11l1 6A1.25 1.25 0 0 1 18.34 23l-5.4-2.84a1.25 1.25 0 0 0-1.16 0L6.39 23a1.25 1.25 0 0 1-1.81-1.32l1-6a1.25 1.25 0 0 0-.36-1.11L.88 10.36a1.25 1.25 0 0 1 .69-2.13l6-.88a1.25 1.25 0 0 0 .94-.68l2.7-5.47a1.25 1.25 0 0 1 2.28 0z" id="Слой_8"/></svg>