<svg xmlns="http://www.w3.org/2000/svg" viewBox="0 0 21.62 21.93"><defs><style>.cls-1{fill:none;stroke:#333;stroke-linecap:round;stroke-linejoin:round}</style></defs><title>texture</title><g id="Слой_2" data-name="Слой 2"><g id="Слой_9" data-name="Слой 9"><path class="cls-1" d="M1.47 14.84c-1.3.68-1.3 1.78 0 2.46l7 3.62a5.77 5.77 0 0 0 4.73 0l7-3.62c1.3-.68 1.3-1.78 0-2.46"/><path class="cls-1" d="M1.47 10c-1.3.68-1.3 1.78 0 2.46l7 3.62a5.77 5.77 0 0 0 4.73 0l7-3.62c1.3-.68 1.3-1.78 0-2.46"/><path class="cls-1" d="M13.17 10.71l7-3.62c1.3-.68 1.3-1.78 0-2.46l-7-3.63a5.77 5.77 0 0 0-4.72 0l-7 3.62c-1.3.68-1.3 1.78 0 2.46l7 3.62a5.77 5.77 0 0 0 4.72.01z"/></g></g></svg>