<svg xmlns="http://www.w3.org/2000/svg" viewBox="0 0 21.62 22.89"><defs><style>.cls-1{fill:none;stroke:#333;stroke-linecap:round;stroke-linejoin:round}</style></defs><title>work</title><g id="Слой_2" data-name="Слой 2"><path class="cls-1" d="M21.12 17c0 .45-.32.89-1 1.23l-7 3.62a5.77 5.77 0 0 1-4.73 0l-7-3.62c-.65-.34-1-.78-1-1.23m12.78-6.29l7-3.62c1.3-.68 1.3-1.78 0-2.46l-7-3.63a5.77 5.77 0 0 0-4.72 0l-7 3.62c-1.3.68-1.3 1.78 0 2.46l7 3.62a5.77 5.77 0 0 0 4.72.01zM.5 5.86v10.97M21.12 5.86v10.97" id="Слой_9" data-name="Слой 9"/></g></svg>