<svg xmlns="http://www.w3.org/2000/svg" viewBox="0 0 90 90"><defs><style>.cls-1,.cls-2,.cls-3{fill:none}.cls-2,.cls-3{stroke:#333;stroke-miterlimit:10}.cls-3{stroke-width:1.1px}</style></defs><title>prochnost_1</title><g id="Слой_2" data-name="Слой 2"><circle class="cls-1" cx="45" cy="45" r="45" id="Слой_23" data-name="Слой 23"/><g id="Слой_16" data-name="Слой 16"><path class="cls-2" d="M62.49 44.36c-.82-1.23-2.46-2.7-1.55-6.89a14.06 14.06 0 0 0 .35-3c0-8.06-7.26-14.59-16.21-14.59s-16.2 6.52-16.2 14.58a14.06 14.06 0 0 0 .35 3c.91 4.19-.73 5.66-1.55 6.89A15.57 15.57 0 0 0 25 53c0 9.62 9 17.42 20.08 17.42S65.16 62.66 65.16 53a15.57 15.57 0 0 0-2.67-8.64zM45.08 40c-5.5.07-9.29-1-9.29-5.58s4.16-8.37 9.29-8.37 9.29 3.75 9.29 8.37-3.78 5.69-9.29 5.58z"/><rect class="cls-3" x="39.45" y="49.68" width="6" height="10" rx="2" ry="2"/><rect class="cls-3" x="48.45" y="49.68" width="6" height="10" rx="2" ry="2"/><path class="cls-3" d="M36.45 49.68v10"/></g></g></svg>