<svg xmlns="http://www.w3.org/2000/svg" viewBox="0 0 90 90"><defs><style>.cls-1,.cls-2{fill:none}.cls-2{stroke:#333;stroke-linecap:round;stroke-linejoin:round}</style></defs><title>rovno_1</title><g id="Слой_2" data-name="Слой 2"><circle class="cls-1" cx="45" cy="45" r="45" id="Слой_23" data-name="Слой 23"/><g id="Слой_16" data-name="Слой 16"><path class="cls-2" d="M25.62 53.91v-22a5 5 0 0 1 5-5"/><path class="cls-2" d="M35.62 47.91v-16a5 5 0 0 0-5-5m15 21v-16a5 5 0 0 1 5-5m5 20v-15a5 5 0 0 0-5-5m-15 6v16a5 5 0 0 0 5 5m5-20v15a5 5 0 0 1-5 5m15-20v15a5 5 0 0 0 5 5m5-27v22a5 5 0 0 1-5 5m-35 9h40"/></g></g></svg>